HIERARCHY
ROOT Hips
{
	OFFSET 0.000000 103.266502 0.000000
	CHANNELS 6 Xposition Yposition Zposition Xrotation Yrotation Zrotation 
	JOINT Spine
	{
		OFFSET -0.002400 12.777504 0.315300
		CHANNELS 3 Xrotation Yrotation Zrotation
		JOINT Spine1
		{
			OFFSET -0.002067 5.816869 0.032633
			CHANNELS 3 Xrotation Yrotation Zrotation
			JOINT Spine1_split
			{
				OFFSET -0.002067 5.816869 0.032633
				CHANNELS 3 Xrotation Yrotation Zrotation
				JOINT Spine2
				{
					OFFSET -0.002067 5.816869 0.032633
					CHANNELS 3 Xrotation Yrotation Zrotation
					JOINT Neck
					{
						OFFSET -0.003700 21.199493 -0.826900
						CHANNELS 3 Xrotation Yrotation Zrotation
						JOINT Head
						{
							OFFSET 0.000000 20.442200 4.834800
							CHANNELS 3 Xrotation Yrotation Zrotation
							JOINT HeadTop_End
							{
								OFFSET 0.000000 34.668396 4.968400
								CHANNELS 3 Xrotation Yrotation Zrotation
								End Site
								{
									OFFSET 0.000000 0.000000 0.000000
								}
							}
						}
					}
					JOINT LeftShoulder
					{
						OFFSET 3.288150 8.794197 -1.372250
						CHANNELS 3 Xrotation Yrotation Zrotation
						JOINT LeftShoulder_split
						{
							OFFSET 3.288150 8.794197 -1.372250
							CHANNELS 3 Xrotation Yrotation Zrotation
							JOINT LeftArm
							{
								OFFSET 11.953299 -2.279007 -0.146200
								CHANNELS 3 Xrotation Yrotation Zrotation
								JOINT LeftForeArm
								{
									OFFSET 18.448900 0.000000 0.000000
									CHANNELS 3 Xrotation Yrotation Zrotation
									JOINT LeftHand
									{
										OFFSET 29.527798 0.000000 0.000000
										CHANNELS 3 Xrotation Yrotation Zrotation
										JOINT LeftHandThumb1
										{
											OFFSET 10.739754 -2.369614 9.225399
											CHANNELS 3 Xrotation Yrotation Zrotation
											JOINT LeftHandThumb2
											{
												OFFSET 4.926170 -2.844131 2.844125
												CHANNELS 3 Xrotation Yrotation Zrotation
												JOINT LeftHandThumb3
												{
													OFFSET 4.614891 -2.664413 2.664409
													CHANNELS 3 Xrotation Yrotation Zrotation
													JOINT LeftHandThumb4
													{
														OFFSET 4.432465 -2.559082 2.559083
														CHANNELS 3 Xrotation Yrotation Zrotation
														End Site
														{
															OFFSET 0.000000 0.000000 0.000000
														}
													}
												}
											}
										}
										JOINT LeftHandIndex1
										{
											OFFSET 26.467674 0.187653 6.405298
											CHANNELS 3 Xrotation Yrotation Zrotation
											JOINT LeftHandIndex2
											{
												OFFSET 8.792900 0.000000 0.000000
												CHANNELS 3 Xrotation Yrotation Zrotation
												JOINT LeftHandIndex3
												{
													OFFSET 10.075203 0.000000 0.000000
													CHANNELS 3 Xrotation Yrotation Zrotation
													End Site
													{
														OFFSET 0.000000 0.000000 0.000000
													}
												}
											}
										}
										JOINT LeftHandMiddle1
										{
											OFFSET 25.764404 0.000000 0.000000
											CHANNELS 3 Xrotation Yrotation Zrotation
											JOINT LeftHandMiddle2
											{
												OFFSET 9.393974 0.000000 0.000000
												CHANNELS 3 Xrotation Yrotation Zrotation
												JOINT LeftHandMiddle3
												{
													OFFSET 10.771950 0.000000 0.000000
													CHANNELS 3 Xrotation Yrotation Zrotation
													End Site
													{
														OFFSET 0.000000 0.000000 0.000000
													}
												}
											}
										}
										JOINT LeftHandRing1
										{
											OFFSET 24.660927 0.144547 -6.225808
											CHANNELS 3 Xrotation Yrotation Zrotation
											JOINT LeftHandRing2
											{
												OFFSET 9.393799 0.000000 0.000000
												CHANNELS 3 Xrotation Yrotation Zrotation
												JOINT LeftHandRing3
												{
													OFFSET 9.928497 0.000000 0.000000
													CHANNELS 3 Xrotation Yrotation Zrotation
													End Site
													{
														OFFSET 0.000000 0.000000 0.000000
													}
												}
											}
										}
										JOINT LeftHandPinky1
										{
											OFFSET 23.655350 0.125290 -12.815412
											CHANNELS 3 Xrotation Yrotation Zrotation
											JOINT LeftHandPinky2
											{
												OFFSET 8.425102 0.000000 0.000000
												CHANNELS 3 Xrotation Yrotation Zrotation
												JOINT LeftHandPinky3
												{
													OFFSET 8.147003 0.000000 0.000000
													CHANNELS 3 Xrotation Yrotation Zrotation
													End Site
													{
														OFFSET 0.000000 0.000000 0.000000
													}
												}
											}
										}
									}
								}
							}
						}
					}
					JOINT RightShoulder
					{
						OFFSET -3.249400 8.794197 -1.372250
						CHANNELS 3 Xrotation Yrotation Zrotation
						JOINT RightShoulder_split
						{
							OFFSET -3.249400 8.794197 -1.372250
							CHANNELS 3 Xrotation Yrotation Zrotation
							JOINT RightArm
							{
								OFFSET -11.953299 -2.279007 -0.146200
								CHANNELS 3 Xrotation Yrotation Zrotation
								JOINT RightForeArm
								{
									OFFSET -18.448900 0.000000 0.000000
									CHANNELS 3 Xrotation Yrotation Zrotation
									JOINT RightHand
									{
										OFFSET -29.527802 0.000000 0.000000
										CHANNELS 3 Xrotation Yrotation Zrotation
										JOINT RightHandThumb1
										{
											OFFSET -10.739754 -2.369614 9.225399
											CHANNELS 3 Xrotation Yrotation Zrotation
											JOINT RightHandThumb2
											{
												OFFSET -4.926170 -2.844131 2.844125
												CHANNELS 3 Xrotation Yrotation Zrotation
												JOINT RightHandThumb3
												{
													OFFSET -4.614891 -2.664413 2.664409
													CHANNELS 3 Xrotation Yrotation Zrotation
													JOINT RightHandThumb4
													{
														OFFSET -4.432465 -2.559082 2.559083
														CHANNELS 3 Xrotation Yrotation Zrotation
														End Site
														{
															OFFSET 0.000000 0.000000 0.000000
														}
													}
												}
											}
										}
										JOINT RightHandIndex1
										{
											OFFSET -26.467674 0.187653 6.405298
											CHANNELS 3 Xrotation Yrotation Zrotation
											JOINT RightHandIndex2
											{
												OFFSET -8.792900 0.000000 0.000000
												CHANNELS 3 Xrotation Yrotation Zrotation
												JOINT RightHandIndex3
												{
													OFFSET -10.075203 0.000000 0.000000
													CHANNELS 3 Xrotation Yrotation Zrotation
													End Site
													{
														OFFSET 0.000000 0.000000 0.000000
													}
												}
											}
										}
										JOINT RightHandMiddle1
										{
											OFFSET -25.764404 0.000000 0.000000
											CHANNELS 3 Xrotation Yrotation Zrotation
											JOINT RightHandMiddle2
											{
												OFFSET -9.393974 0.000000 0.000000
												CHANNELS 3 Xrotation Yrotation Zrotation
												JOINT RightHandMiddle3
												{
													OFFSET -10.771950 0.000000 0.000000
													CHANNELS 3 Xrotation Yrotation Zrotation
													End Site
													{
														OFFSET 0.000000 0.000000 0.000000
													}
												}
											}
										}
										JOINT RightHandRing1
										{
											OFFSET -24.660927 0.144547 -6.225808
											CHANNELS 3 Xrotation Yrotation Zrotation
											JOINT RightHandRing2
											{
												OFFSET -9.393799 0.000000 0.000000
												CHANNELS 3 Xrotation Yrotation Zrotation
												JOINT RightHandRing3
												{
													OFFSET -9.928497 0.000000 0.000000
													CHANNELS 3 Xrotation Yrotation Zrotation
													End Site
													{
														OFFSET 0.000000 0.000000 0.000000
													}
												}
											}
										}
										JOINT RightHandPinky1
										{
											OFFSET -23.655350 0.125290 -12.815412
											CHANNELS 3 Xrotation Yrotation Zrotation
											JOINT RightHandPinky2
											{
												OFFSET -8.425102 0.000000 0.000000
												CHANNELS 3 Xrotation Yrotation Zrotation
												JOINT RightHandPinky3
												{
													OFFSET -8.147003 0.000000 0.000000
													CHANNELS 3 Xrotation Yrotation Zrotation
													End Site
													{
														OFFSET 0.000000 0.000000 0.000000
													}
												}
											}
										}
									}
								}
							}
						}
					}
				}
			}
		}
	}
	JOINT LeftUpLeg
	{
		OFFSET 11.394100 -6.187798 -0.413800
		CHANNELS 3 Xrotation Yrotation Zrotation
		JOINT LeftLeg
		{
			OFFSET 0.430247 -32.302673 3.732800
			CHANNELS 3 Xrotation Yrotation Zrotation
			JOINT LeftFoot
			{
				OFFSET -0.430247 -48.264931 -6.423300
				CHANNELS 3 Xrotation Yrotation Zrotation
				JOINT LeftToeBase
				{
					OFFSET 4.230900 -16.068199 23.438400
					CHANNELS 3 Xrotation Yrotation Zrotation
					JOINT LeftToe_End
					{
						OFFSET 4.510700 0.695400 19.974600
						CHANNELS 3 Xrotation Yrotation Zrotation
						End Site
						{
							OFFSET 0.000000 0.000000 0.000000
						}
					}
				}
			}
		}
	}
	JOINT RightUpLeg
	{
		OFFSET -11.333700 -6.187798 -0.413800
		CHANNELS 3 Xrotation Yrotation Zrotation
		JOINT RightLeg
		{
			OFFSET -0.430392 -32.302628 3.733000
			CHANNELS 3 Xrotation Yrotation Zrotation
			JOINT RightFoot
			{
				OFFSET 0.430392 -48.264973 -6.423500
				CHANNELS 3 Xrotation Yrotation Zrotation
				JOINT RightToeBase
				{
					OFFSET -4.230900 -16.068199 23.438400
					CHANNELS 3 Xrotation Yrotation Zrotation
					JOINT RightToe_End
					{
						OFFSET -4.510700 0.695400 19.974600
						CHANNELS 3 Xrotation Yrotation Zrotation
						End Site
						{
							OFFSET 0.000000 0.000000 0.000000
						}
					}
				}
			}
		}
	}
}
MOTION
Frames: 6
Frame Time: 0.016667
-13.774744 98.074646 -2.922848 12.402285 -131.102394 17.005347 17.498062 1.675845 -0.959280 8.584649 -0.768868 -1.067720 0.000000 0.000000 0.000000 8.613862 -0.684829 -1.055481 6.128084 42.115226 2.848594 7.484611 47.433878 -29.136928 -0.000000 0.000003 0.000001 -2.314304 -19.181521 9.645833 0.000000 0.000000 0.000000 -51.327342 -47.749508 -40.680607 -278.688766 -149.109436 -272.924797 -39.791617 -8.511754 26.630687 -1.432207 -10.034958 7.701106 0.670876 15.323972 -3.924348 -0.521561 -3.699309 0.174547 -0.000002 -0.000001 -0.000001 13.261839 -0.987901 16.342221 -0.165933 0.299369 -25.445554 -0.000001 0.000000 -0.000001 8.548222 -0.380228 4.744683 0.222591 0.632725 -24.241716 -0.000001 -0.000000 -0.000002 6.164202 3.070773 -10.552874 0.029719 0.292419 -24.465427 0.000002 -0.000002 0.000001 -5.502663 7.612667 -8.221733 0.203313 0.257470 -40.928293 0.000000 0.000001 -0.000003 -5.432980 22.644165 5.004593 0.000000 0.000000 0.000000 -52.631669 7.939683 23.713478 118.664169 44.432693 -113.869253 -26.452909 -2.612699 -41.869490 0.242775 10.291370 -10.807289 1.082976 -16.586928 3.348103 3.358785 -13.364655 -8.312672 0.000000 -0.000000 0.000000 19.476556 11.202827 -14.310248 -0.119539 -0.321870 17.065489 -0.000000 -0.000000 -0.000003 4.333498 2.440269 -5.783591 0.339400 -0.451951 25.920225 -0.000000 0.000000 -0.000001 -7.040580 -10.715430 4.750276 0.113486 -0.086660 25.185786 -0.000002 0.000000 0.000001 -19.515413 -20.289270 5.002063 0.220582 -0.082069 35.874575 0.000000 0.000001 -0.000001 -114.963149 -23.239893 3.790252 87.074988 -10.404913 -33.072138 50.895489 -15.722529 -27.327496 -0.342590 0.177204 0.138322 -0.000000 0.000001 -0.000002 -17.499838 31.369662 -2.854378 26.986878 18.618314 -4.241147 -5.956559 10.021776 11.292055 -1.096076 1.398682 1.174377 -0.000000 -0.000003 -0.000000 
-14.282665 98.249634 -2.825102 12.706151 -133.149839 17.489061 17.876518 1.747016 -1.201272 8.889992 -0.672192 -1.209733 0.000000 0.000000 0.000000 8.918210 -0.587174 -1.199353 6.896475 42.518156 2.371668 7.475140 47.851025 -29.457516 -0.000000 -0.000001 0.000000 -2.111839 -18.783215 11.594746 0.000000 0.000000 0.000000 -57.541373 -46.188717 -44.501978 -278.771849 -147.854280 -272.712460 -38.912414 -6.764445 26.414742 -1.404020 -9.882331 7.759681 0.819662 15.719824 -3.760164 -0.400107 -3.279219 0.388878 0.000002 -0.000001 0.000000 13.267466 -0.989213 15.858528 -0.165517 0.299786 -25.929328 0.000001 -0.000001 -0.000001 8.542915 -0.376243 4.260962 0.223918 0.635176 -24.725449 -0.000001 0.000001 -0.000000 6.159698 3.076361 -11.036457 0.030915 0.295194 -24.949177 0.000000 -0.000002 -0.000002 -5.511934 7.619110 -8.705120 0.205040 0.259178 -41.412004 -0.000001 0.000001 -0.000001 -4.710945 23.091017 2.504139 0.000000 0.000000 0.000000 -57.009103 7.316084 23.385408 120.495288 44.831367 -115.618328 -25.258984 -3.285258 -43.084960 0.246953 10.259858 -10.819160 1.096947 -16.624491 3.332862 3.362446 -13.389922 -8.323986 -0.000000 0.000002 -0.000000 19.476650 11.202799 -14.266144 -0.119530 -0.321933 17.109819 0.000001 -0.000000 -0.000002 4.332937 2.440183 -5.739235 0.339599 -0.451888 25.964486 -0.000000 0.000000 -0.000001 -7.040674 -10.715781 4.794435 0.113491 -0.087196 25.230029 0.000001 -0.000000 0.000002 -19.515288 -20.289417 5.046207 0.220726 -0.082237 35.918787 -0.000002 -0.000002 0.000002 -116.886748 -23.271153 4.531038 86.216692 -10.959973 -33.532175 50.322313 -16.303825 -29.089864 -0.342633 0.177278 0.138230 0.000001 0.000002 0.000000 -16.316738 32.767850 -3.195536 26.476626 19.125556 -4.237122 -6.033945 10.086650 11.432904 -1.096913 1.399024 1.174556 0.000000 0.000002 0.000000 
-14.791754 98.408348 -2.745253 13.045631 -134.993703 18.020261 18.232589 1.806944 -1.438021 9.182362 -0.573642 -1.355681 0.000000 0.000000 0.000000 9.209421 -0.487401 -1.347775 7.658622 42.872558 1.900506 7.470995 48.226128 -29.784843 0.000001 0.000002 0.000000 -1.708643 -18.296955 14.299376 0.000000 0.000000 0.000000 -63.045187 -44.076666 -47.688651 -278.832665 -146.576734 -272.650141 -36.274230 -4.437903 25.502311 -1.375937 -9.729481 7.818299 0.965334 16.109908 -3.599170 -0.281717 -2.865522 0.599171 -0.000002 -0.000001 -0.000002 13.273236 -0.990514 15.382339 -0.165109 0.300092 -26.405501 0.000000 -0.000002 -0.000001 8.537681 -0.372275 3.784803 0.225183 0.637537 -25.201699 -0.000001 -0.000000 -0.000000 6.155171 3.082819 -11.512413 0.032066 0.297839 -25.425348 -0.000000 0.000000 0.000001 -5.521703 7.626079 -9.180903 0.206757 0.260813 -41.888201 -0.000001 -0.000001 0.000000 -3.961805 23.402322 0.011314 0.000000 0.000000 0.000000 -60.996718 6.507647 22.843721 122.036165 45.207035 -117.083267 -24.195650 -3.692353 -44.353264 0.251442 10.226658 -10.831640 1.112202 -16.666071 3.315896 3.366200 -13.415584 -8.335311 -0.000000 -0.000003 -0.000001 19.476751 11.202713 -14.217332 -0.119494 -0.321978 17.158813 -0.000002 -0.000000 0.000000 4.332356 2.440074 -5.690257 0.339846 -0.451868 26.013424 0.000000 0.000000 -0.000001 -7.040675 -10.716127 4.843291 0.113527 -0.087708 25.279001 0.000001 -0.000001 0.000003 -19.514988 -20.289482 5.094963 0.220870 -0.082424 35.967783 -0.000004 -0.000001 0.000002 -118.690274 -23.242468 5.123508 85.382542 -11.758306 -33.902931 49.413615 -16.796518 -30.999797 -0.342532 0.177251 0.138266 0.000001 -0.000001 -0.000000 -15.106698 34.067980 -3.624684 26.079401 19.560398 -4.243224 -6.177411 10.115539 11.558512 -1.096045 1.399118 1.174712 -0.000000 0.000001 0.000000 
-15.445786 98.542763 -2.710016 13.386682 -136.626214 18.588348 18.561886 1.868164 -1.661795 9.456796 -0.479588 -1.500248 0.000000 0.000000 0.000000 9.482787 -0.391729 -1.495370 8.404170 43.182444 1.436509 7.469480 48.560719 -30.108997 0.000001 -0.000003 -0.000000 -1.353460 -17.783122 16.989124 0.000000 0.000000 0.000000 -68.037714 -42.061838 -50.427324 -278.809278 -145.498192 -272.534930 -32.375267 -1.747029 24.022506 -1.348031 -9.576555 7.876806 1.107515 16.493348 -3.441769 -0.166599 -2.459204 0.805021 0.000002 -0.000001 0.000000 13.279099 -0.991802 14.914907 -0.164724 0.300421 -26.872894 -0.000001 -0.000001 -0.000001 8.532587 -0.368296 3.317346 0.226396 0.639828 -25.669055 0.000001 0.000002 0.000003 6.150692 3.089449 -11.979663 0.033258 0.300448 -25.892747 0.000001 -0.000001 -0.000002 -5.531903 7.633418 -9.647845 0.208412 0.262454 -42.355594 0.000001 0.000000 -0.000001 -3.221331 23.818381 -2.377804 0.000000 0.000000 0.000000 -64.631000 5.220863 21.642988 123.514969 45.342013 -118.648432 -23.655938 -3.889354 -45.553216 0.256037 10.192099 -10.844656 1.128774 -16.711229 3.297542 3.369937 -13.441287 -8.346699 0.000000 -0.000002 -0.000001 19.476681 11.202590 -14.164243 -0.119399 -0.322009 17.211850 -0.000002 0.000002 0.000001 4.331632 2.439932 -5.637030 0.340112 -0.451851 26.066679 0.000000 0.000000 0.000000 -7.040679 -10.716444 4.896189 0.113571 -0.088283 25.332162 -0.000000 0.000000 0.000001 -19.514638 -20.289488 5.147718 0.221086 -0.082618 36.020922 0.000000 -0.000001 -0.000001 -120.497391 -23.006090 5.443183 84.824679 -12.426165 -34.075629 48.934590 -17.325207 -32.842282 -0.342499 0.177229 0.138319 0.000001 -0.000001 0.000001 -13.851969 35.264144 -4.180572 25.923715 19.931552 -4.260074 -6.523637 10.102619 11.624826 -1.091668 1.399541 1.174740 -0.000000 -0.000002 -0.000000 
-16.050488 98.639496 -2.697959 13.580205 -138.009628 19.158790 18.861666 1.921174 -1.862462 9.708552 -0.395317 -1.638887 0.000000 0.000000 0.000000 9.733544 -0.305668 -1.637467 9.130956 43.449524 0.981551 7.466769 48.857187 -30.426840 -0.000001 0.000001 0.000001 -1.028361 -17.270458 19.673112 0.000000 0.000000 0.000000 -72.249468 -40.023679 -52.614095 -278.694668 -144.381511 -272.434007 -27.812885 0.732631 21.879758 -1.320396 -9.423786 7.935103 1.246004 16.869111 -3.288243 -0.055070 -2.061274 1.005863 0.000000 0.000000 0.000001 13.285023 -0.993151 14.457465 -0.164339 0.300763 -27.330473 0.000001 -0.000001 -0.000001 8.527699 -0.364377 2.859821 0.227662 0.642142 -26.126578 0.000000 0.000000 0.000003 6.146427 3.096070 -12.436945 0.034407 0.302941 -26.350306 -0.000001 -0.000000 -0.000000 -5.542300 7.641106 -10.104990 0.210087 0.264022 -42.813104 -0.000001 0.000000 0.000001 -2.525910 24.010050 -4.580757 0.000000 0.000000 0.000000 -68.052276 4.123820 20.350888 124.815369 45.407811 -120.114587 -23.254448 -4.103638 -46.578960 0.260583 10.156454 -10.857871 1.146441 -16.759481 3.277998 3.373627 -13.466846 -8.358080 0.000000 -0.000000 -0.000000 19.476629 11.202419 -14.107671 -0.119373 -0.322081 17.268624 -0.000001 -0.000000 0.000001 4.330915 2.439777 -5.580211 0.340358 -0.451861 26.123332 0.000000 -0.000000 -0.000001 -7.040608 -10.716720 4.952818 0.113613 -0.088905 25.388915 0.000000 0.000000 0.000001 -19.514129 -20.289415 5.204115 0.221235 -0.082837 36.077640 0.000000 -0.000001 -0.000002 -121.817243 -23.060177 5.887352 84.356859 -12.858831 -34.507571 48.664104 -17.944162 -34.633912 -0.342369 0.177227 0.138382 0.000000 0.000001 -0.000003 -12.796421 36.402367 -4.830834 25.993270 20.217413 -4.274370 -6.936292 10.051611 11.671989 -1.084093 1.399932 1.174709 -0.000000 -0.000000 -0.000000 
-16.619822 98.712189 -2.711987 13.792017 -139.141404 19.732186 19.128423 1.976366 -2.038562 9.933196 -0.325226 -1.768042 0.000000 0.000000 0.000000 9.957226 -0.233569 -1.770331 9.833685 43.677574 0.537307 7.459040 49.116969 -30.732860 0.000000 0.000001 -0.000001 -0.742038 -16.787162 22.251623 0.000000 0.000000 0.000000 -75.743574 -38.159348 -54.347071 -278.406379 -143.307436 -272.166755 -23.410438 2.591536 19.381094 -1.292983 -9.271451 7.993145 1.380528 17.236326 -3.139028 0.052755 -1.672867 1.201312 0.000002 0.000002 -0.000000 13.290967 -0.994432 14.010929 -0.164018 0.301060 -27.776925 -0.000001 -0.000001 -0.000002 8.522898 -0.360468 2.413355 0.228893 0.644324 -26.573092 0.000000 -0.000000 0.000000 6.142175 3.102737 -12.883316 0.035595 0.305340 -26.796698 -0.000001 -0.000001 0.000000 -5.552970 7.649016 -10.551006 0.211738 0.265589 -43.259631 0.000000 0.000000 0.000001 -1.879492 24.223194 -6.585932 0.000000 0.000000 0.000000 -71.028128 2.819978 18.703715 126.110591 45.457006 -121.669397 -22.991165 -4.159553 -47.573388 0.265249 10.120065 -10.871364 1.165032 -16.810270 3.257428 3.377301 -13.492077 -8.369239 0.000000 -0.000001 0.000000 19.476544 11.202182 -14.048120 -0.119337 -0.322121 17.328412 -0.000000 -0.000000 0.000000 4.330150 2.439599 -5.520316 0.340601 -0.451916 26.183090 -0.000001 -0.000000 -0.000000 -7.040468 -10.717010 5.012352 0.113643 -0.089503 25.448720 -0.000000 -0.000000 0.000000 -19.513509 -20.289326 5.263460 0.221462 -0.083069 36.137459 -0.000003 0.000001 -0.000005 -122.897342 -22.994083 6.132506 83.969150 -13.089196 -34.678134 48.660528 -18.671005 -36.610978 -0.342304 0.177141 0.138308 0.000001 0.000000 0.000001 -11.795291 37.414103 -5.487746 26.162620 20.414933 -4.267449 -7.378456 9.959502 11.677903 -1.075622 1.400246 1.174604 0.000000 -0.000000 -0.000000 
